<?xml version="1.0" encoding="utf-8"?>
<!-- Generator: Adobe Illustrator 25.0.0, SVG Export Plug-In . SVG Version: 6.00 Build 0)  -->
<svg version="1.1" id="Vrstva_1" xmlns="http://www.w3.org/2000/svg" xmlns:xlink="http://www.w3.org/1999/xlink" x="0px" y="0px"
	 viewBox="0 0 638.2 176.2" style="enable-background:new 0 0 638.2 176.2;" xml:space="preserve">
<style type="text/css">
	.st0{fill:#3D9BE9;}
	.st1{fill:#FFFFFF;}
	.st2{fill:none;}
</style>
<path id="XMLID_23_" class="st0" d="M158.9,174.1c2.2,0,4.2-0.9,5.9-2.6c1.6-1.6,2.4-3.6,2.4-5.9c0-2.2-0.8-4.1-2.4-5.7l-11.2-11.2
	l-12.1-11.9l-24.4-24.4c-1.6-1.6-3.6-2.4-5.9-2.4c-2.2,0-4.1,0.8-5.7,2.4c-1.8,1.8-2.6,3.7-2.6,5.9s0.9,4.2,2.6,5.9l23.5,23.5
	l12.3,12.1l11.7,11.7C154.7,173.2,156.7,174.1,158.9,174.1z"/>
<path id="XMLID_24_" class="st1" d="M128.2,154.9c-2.5-2.5-6.3-3.1-9.5-1.6c-9.3,4.4-19.6,6.6-31,6.6c-13.5,0-25.6-3.2-36.4-9.5
	S32,135.5,25.9,124.5c-6.2-10.9-9.2-23.1-9.2-36.6c0-13.3,3.1-25.5,9.2-36.4C32.1,40.7,40.6,32,51.4,25.7s22.9-9.5,36.4-9.5
	c13.3,0,25.4,3.2,36.2,9.5s19.3,14.9,25.4,25.8c6.2,10.9,9.2,23.1,9.2,36.4c0,9.2-1.5,18-4.6,26.4c-1.5,4-3.2,7.7-5.3,11.3
	c-1.9,3.3-1.4,7.4,1.3,10l0.4,0.4c3.9,3.8,10.3,2.9,13-1.7c2.4-4.1,4.5-8.5,6.2-13.1c3.9-10.3,5.8-21.5,5.8-33.3
	c0-16.7-3.8-31.8-11.3-45.1c-7.6-13.3-18-23.8-31.5-31.5C119.4,3.8,104.4,0,87.8,0C71.1,0,56,3.8,42.7,11.4S18.9,29.5,11.4,42.9
	C3.8,56.2,0,71.3,0,88s3.8,31.8,11.3,45.2c7.6,13.4,18,23.9,31.3,31.6c13.3,7.6,28.4,11.4,45.1,11.4c10,0,19.5-1.4,28.5-4.3
	c3.3-1,6.5-2.3,9.6-3.6C131.1,165.9,132.3,159,128.2,154.9L128.2,154.9z"/>
<g id="XMLID_18_">
	<path id="XMLID_2_" class="st1" d="M261,167.9c4-1.6,5.9-6.2,4.3-10.2l-7.7-18.4l0,0L203.6,10c-1.5-3.7-4.1-5.5-7.9-5.5
		c-2.5,0-4.5,0.7-6,2.1s-2.3,3.3-2.3,5.6c0,1.6,0.4,3.5,1.3,5.7L251,163.8C252.5,167.6,257,169.4,261,167.9L261,167.9z"/>
	<path id="XMLID_1_" class="st1" d="M328.5,4.4c-2.2,0-4,0.4-5.3,1.3s-2.4,2.4-3.3,4.6l-49.2,117.8c-1.5,3.7,0,8,3.5,9.9l0,0
		c4,2.2,9.1,0.4,10.9-3.8l50-117.3c0.7-1.8,1.1-3.4,1.1-4.8c0-2.2-0.7-4-2.1-5.5C332.7,5.1,330.8,4.4,328.5,4.4z"/>
</g>
<path id="XMLID_12_" class="st1" d="M638.2,167.9c0,2.3-0.7,4.3-2.2,5.9c-1.5,1.6-3.4,2.4-5.9,2.4c-2.9,0-5.1-1-6.6-3.1l-52.6-72.8
	l-53.7,73.3c-1.5,1.8-3.5,2.6-6.2,2.6c-2.5,0-4.5-0.8-5.9-2.3c-1.5-1.5-2.2-3.4-2.2-5.6c0-2.2,0.7-4.2,2-5.9l54.3-73.9l-50.8-70.6
	c-1.2-1.9-1.8-3.7-1.8-5.3c0-2.2,0.7-4.1,2.2-5.7s3.4-2.4,5.7-2.4c2.9,0,5.1,1,6.6,3.1L571,76.7l50.6-69.1c1.6-2.1,3.8-3.1,6.6-3.1
	c2.3,0,4.3,0.8,5.7,2.5c1.5,1.7,2.2,3.6,2.2,5.8c0,1.9-0.5,3.6-1.5,5.1l-51.9,70.4l53.5,74.1C637.6,164.1,638.2,166,638.2,167.9z"/>
<path id="XMLID_7_" class="st2" d="M335.8,191.9"/>
<path id="XMLID_8_" class="st2" d="M406.6,143.5"/>
<g id="XMLID_5_">
	<path id="XMLID_6_" class="st1" d="M474.1,159.2h-95v-138h95c2.5,0,4.5-0.9,6.2-2.5c1.6-1.5,2.4-3.6,2.4-5.9s-0.8-4.5-2.4-6.1
		s-3.7-2.5-6.2-2.5H370.9c-2.3,0-4.5,0.9-6.2,2.5s-2.7,3.8-2.7,6.2v154.7c0,2.3,1,4.4,2.7,6.1c1.7,1.7,3.8,2.5,6.2,2.5h103.2
		c2.5,0,4.5-0.8,6.2-2.4c1.6-1.6,2.4-3.6,2.4-5.9c0-2.3-0.8-4.5-2.4-6.1C478.6,160.2,476.6,159.2,474.1,159.2z"/>
	<path id="XMLID_9_" class="st1" d="M454.4,95.9c1.7-1.6,2.5-3.6,2.5-5.9s-0.8-4.5-2.4-6.1s-3.7-2.6-6.2-2.6H389v17h59.3
		C450.7,98.2,452.7,97.5,454.4,95.9z"/>
</g>
<g id="XMLID_3_">
</g>
<g id="XMLID_4_">
</g>
<g id="XMLID_10_">
</g>
<g id="XMLID_11_">
</g>
<g id="XMLID_14_">
</g>
<g id="XMLID_15_">
</g>
<g id="XMLID_17_">
</g>
<g id="XMLID_19_">
</g>
<g id="XMLID_26_">
</g>
<g id="XMLID_30_">
</g>
<g id="XMLID_31_">
</g>
<g id="XMLID_32_">
</g>
<g id="XMLID_33_">
</g>
<g id="XMLID_34_">
</g>
<g id="XMLID_35_">
</g>
</svg>
